<?xml version="1.0" encoding="utf-8"?>
<!-- Generator: Adobe Illustrator 24.0.0, SVG Export Plug-In . SVG Version: 6.00 Build 0)  -->
<svg version="1.1" baseProfile="tiny" id="Layer_1" xmlns="http://www.w3.org/2000/svg" xmlns:xlink="http://www.w3.org/1999/xlink"
	 x="0px" y="0px" viewBox="0 0 526.7 351.9" xml:space="preserve">
<g>
	<path fill="#CC5200" d="M0,262.8c0.8-18.7,4.6-35.3,13.9-50.4c11.3-18.2,26.3-32.4,45-42.7c30.6-17,63.2-21.1,97-12.8
		c17.3,4.2,34.4,9.3,49.5,19.7c8.6,6,18.3,10.5,25.1,18.7c4.4,5.4,8.9,10.8,12.4,16.7c7.1,11.8,13.3,24,15.5,37.8
		c1.5,9.7,1.9,19.2-2.7,28.4c-1,2.1-1.3,4.5-2.1,6.7c-0.4,1.1-1,2.5-1.9,3c-4.2,2.4-8.5,4.6-12.7,6.8c-0.8,0.4-1.6,0.6-2.4,1
		c-3,1.7-5.8,3.9-9,5.1c-12.7,4.6-25.6,8.8-38.3,13.5c-11.5,4.2-22.7,9-34.2,13.2c-6.6,2.4-13.6,4-20.3,6.4c-5.6,2-10.8,5-16.5,6.9
		c-10.7,3.7-21.5,7.4-32.4,10.1c-4.6,1.2-10.7,1.6-14.7-0.5c-30.2-15.6-57.6-34.3-68.2-69.3c-0.9-3-1.7-6-2.1-9.1
		C0.4,268.6,0.2,265.1,0,262.8z M86.8,290.2c-0.6,0.1-0.9,0.1-1,0.2c-0.6,0.6-1.1,1.4-1.7,2c-5.9,6-9.3,13.5-12.8,20.9
		c-1.3,2.7-2.5,5.5-3,8.4c-0.6,4.1-0.8,8.4-0.7,12.6c0.1,3.4,0.3,6.9,1.2,10.2c0.9,3.2,2.6,6,7,5.5c2.2-0.3,4.6,0.6,6.7,0.2
		c3.2-0.6,6.4-1.7,9.5-3c3.4-1.5,6.4-3.6,9.8-5.1c3-1.4,6.3-2.2,9.4-3.4c4.1-1.6,8.1-3.5,12.3-4.9c6.6-2.2,13.3-3.9,19.8-6.3
		c6.5-2.4,12.7-5.6,19.1-8.1c2.5-1,5.3-0.9,7.8-1.9c6.8-2.6,13.5-5.5,20.3-8.2c0.3-0.1,0.7-0.1,1.1-0.2c5.4-2,10.7-4.1,16.1-6.1
		c3.4-1.3,6.8-3.4,10.3-3.6c6.1-0.4,11.2-3,16.5-5.6c1.3-0.6,2.8-1.1,4.2-1.1c5-0.1,8.8-2.7,12.1-6c1.4-1.3,1.7-3.8,2.5-5.8
		c0.6-1.4,0.9-2.9,1.7-4.2c2.9-5.2,3.7-10.8,3.3-16.6c-0.1-0.8-0.1-1.9-0.5-2.5c-3.9-4.9-7.8-9.7-11.9-14.4
		c-0.9-1.1-2.4-1.7-3.7-2.3c-3.4-1.4-6.8-2.7-10.4-3.7c-4.2-1.3-8.5-2.9-12.9-3.1c-13.6-0.8-26.8,2.3-39.6,6.6
		c-6.4,2.1-12.4,5.5-18.7,8c-5.4,2.1-11,3.7-16.4,5.8c-11.8,4.6-22.2,12.5-35,15c-0.6,0.1-1.2,0.9-1.8,1.3c-1.9,1.5-3.9,3-5.8,4.4
		c-2.5,1.9-7.1,3.7-7.1,5.5c0,2.8-1.8,2.8-2.7,4.1c-0.4,0.6-0.3,1.5-0.7,2.1c-1.8,2.5-3.8,5-5.7,7.5c-0.3-0.2-0.5-0.5-0.8-0.7
		C85,292.5,85.8,291.5,86.8,290.2z"/>
	<path fill="#663500" d="M203.8,255.3c0,2.3,0,3.3,0,4.6c1.5-0.5,2.7-0.9,3.9-1.2c6.6,7.6,5.5,22.3-2,25.6c-0.7-0.8-1.4-1.6-2.6-3
		c-2.6,3.5-5.3,6.7-7.3,10.3c-3.4,5.9-8,9.8-14.6,11.8c-6.4,1.9-12.7,4.4-19.3,6.8c1,0.7,1.6,1.1,2.7,1.8
		c-10.8,4.1-21.2,8.1-31.9,12.2c0.3-1.7,0.7-2.9,0.5-3c-2-1-4-1.7-6.1-2.6c1-0.3,2.7-0.9,4.3-1.4c-0.1-5.2,6.8-0.1,7.2-4.8
		c0.1,0.1-0.1-0.3-0.2-0.3c-4.3,0.7-6.8-2.5-10-4.3c-1-0.6-2.6-1.3-3.3-0.9c-4.3,2.2-7.5-1-10.7-1.4c-0.3-2-1.2-3.8-0.6-4.8
		c1.1-2,2.9-3.5,4.6-5.1c1.4-1.3,2.9-2.3,4.4-3.5c1.6-1.3,3.3-2.6,4.9-3.9c1.9-1.5,4.1-2.5,3.2-5.8c-0.3-0.9,0.8-2.6,1.7-3.4
		c1.4-1.2,3.1-2.1,4.8-2.7c4.1-1.5,8.2-2.8,12.4-4c2.9-0.9,6.4,0.5,8.9-2.4c1-1.2,2.9-1.5,3.9-2.7c3.7-3.8,6.2-4.4,10.8-2.2
		c0.7,0.3,1.4,0.5,2.1,0.7c-0.1-0.3-0.1-0.7-0.2-1c2.2-0.6,4.3-1.3,6.5-1.9c4.2-1.2,8.5-2.3,12.7-3.6
		C197.5,258,200.2,256.7,203.8,255.3z"/>
</g>
<g>
	<path fill="#CC5200" d="M237,95.2c0.5-10.2,2.6-19.3,7.8-27.5c6.3-10,14.8-17.7,25.3-23.4c17.2-9.3,35.5-11.6,54.4-7
		c9.7,2.3,19.3,5.1,27.8,10.8c4.8,3.3,10.3,5.7,14.1,10.2c2.5,2.9,5,5.9,7,9.2c4,6.4,7.5,13.1,8.7,20.7c0.9,5.3,1.1,10.5-1.5,15.5
		c-0.6,1.1-0.7,2.5-1.2,3.7c-0.2,0.6-0.6,1.4-1.1,1.6c-2.3,1.3-4.7,2.5-7.1,3.7c-0.4,0.2-0.9,0.3-1.3,0.5c-1.7,0.9-3.3,2.1-5.1,2.8
		c-7.1,2.5-14.4,4.8-21.5,7.4c-6.4,2.3-12.7,4.9-19.2,7.2c-3.7,1.3-7.6,2.2-11.4,3.5c-3.1,1.1-6.1,2.7-9.2,3.8c-6,2-12,4-18.2,5.5
		c-2.6,0.6-6,0.9-8.2-0.3c-16.9-8.5-32.4-18.7-38.3-37.9c-0.5-1.6-0.9-3.3-1.2-5C237.2,98.3,237.1,96.4,237,95.2z M285.7,110.2
		c-0.3,0.1-0.5,0-0.5,0.1c-0.3,0.4-0.6,0.8-1,1.1c-3.3,3.3-5.2,7.4-7.2,11.4c-0.7,1.5-1.4,3-1.7,4.6c-0.4,2.3-0.4,4.6-0.4,6.9
		c0,1.9,0.2,3.8,0.7,5.6c0.5,1.8,1.5,3.3,3.9,3c1.2-0.1,2.6,0.3,3.8,0.1c1.8-0.3,3.6-0.9,5.3-1.7c1.9-0.8,3.6-2,5.5-2.8
		c1.7-0.7,3.5-1.2,5.3-1.9c2.3-0.9,4.6-1.9,6.9-2.7c3.7-1.2,7.5-2.1,11.1-3.4c3.6-1.3,7.1-3,10.7-4.5c1.4-0.5,3-0.5,4.4-1
		c3.8-1.4,7.6-3,11.4-4.5c0.2-0.1,0.4-0.1,0.6-0.1c3-1.1,6-2.2,9-3.3c1.9-0.7,3.8-1.9,5.8-2c3.4-0.2,6.3-1.6,9.2-3.1
		c0.7-0.3,1.6-0.6,2.3-0.6c2.8,0,5-1.5,6.8-3.3c0.8-0.7,0.9-2.1,1.4-3.2c0.3-0.8,0.5-1.6,0.9-2.3c1.6-2.8,2.1-5.9,1.8-9.1
		c0-0.5,0-1-0.3-1.4c-2.2-2.7-4.4-5.3-6.7-7.9c-0.5-0.6-1.3-1-2.1-1.2c-1.9-0.7-3.8-1.5-5.8-2c-2.4-0.7-4.8-1.6-7.2-1.7
		c-7.7-0.5-15,1.3-22.2,3.6c-3.6,1.2-7,3-10.5,4.4c-3,1.2-6.2,2-9.2,3.2c-6.6,2.5-12.5,6.9-19.6,8.2c-0.4,0.1-0.7,0.5-1,0.7
		c-1.1,0.8-2.2,1.6-3.3,2.4c-1.4,1-4,2-4,3c0,1.5-1,1.5-1.5,2.3c-0.2,0.3-0.2,0.8-0.4,1.1c-1,1.4-2.1,2.7-3.2,4.1
		c-0.2-0.1-0.3-0.3-0.5-0.4C284.7,111.4,285.2,110.9,285.7,110.2z"/>
	<path fill="#663500" d="M351.4,91.1c0,1.3,0,1.8,0,2.5c0.8-0.3,1.5-0.5,2.2-0.7c3.7,4.1,3.1,12.2-1.1,14c-0.4-0.4-0.8-0.9-1.5-1.6
		c-1.4,1.9-3,3.7-4.1,5.6c-1.9,3.2-4.5,5.4-8.2,6.4c-3.6,1-7.1,2.4-10.8,3.7c0.6,0.4,0.9,0.6,1.5,1c-6.1,2.3-11.9,4.4-17.9,6.7
		c0.2-0.9,0.4-1.6,0.3-1.7c-1.1-0.5-2.3-1-3.4-1.4c0.6-0.2,1.5-0.5,2.4-0.8c-0.1-2.9,3.8-0.1,4-2.6c0,0-0.1-0.2-0.1-0.2
		c-2.4,0.4-3.8-1.4-5.6-2.4c-0.6-0.3-1.4-0.7-1.9-0.5c-2.4,1.2-4.2-0.5-6-0.8c-0.2-1.1-0.6-2.1-0.3-2.6c0.6-1.1,1.6-1.9,2.6-2.8
		c0.8-0.7,1.6-1.3,2.5-1.9c0.9-0.7,1.8-1.4,2.8-2.2c1-0.8,2.3-1.4,1.8-3.2c-0.2-0.5,0.4-1.4,0.9-1.8c0.8-0.6,1.8-1.1,2.7-1.5
		c2.3-0.8,4.6-1.5,7-2.2c1.6-0.5,3.6,0.3,5-1.3c0.6-0.6,1.6-0.8,2.2-1.4c2.1-2.1,3.5-2.4,6.1-1.2c0.4,0.2,0.8,0.3,1.2,0.4
		c0-0.2-0.1-0.4-0.1-0.6c1.2-0.3,2.4-0.7,3.6-1c2.4-0.7,4.8-1.2,7.1-2C347.9,92.6,349.4,91.9,351.4,91.1z"/>
</g>
<g>
	<path fill="#CC5200" d="M442.1,38.6c0.3-6.6,1.5-12.4,4.5-17.7c3.7-6.4,8.6-11.4,14.7-15c10-6,20.6-7.4,31.6-4.5
		c5.6,1.5,11.2,3.3,16.1,6.9c2.8,2.1,6,3.7,8.2,6.6c1.4,1.9,2.9,3.8,4.1,5.9c2.3,4.1,4.3,8.4,5.1,13.3c0.5,3.4,0.6,6.7-0.9,10
		c-0.3,0.7-0.4,1.6-0.7,2.3c-0.1,0.4-0.3,0.9-0.6,1.1c-1.4,0.8-2.8,1.6-4.1,2.4c-0.2,0.1-0.5,0.2-0.8,0.4c-1,0.6-1.9,1.4-2.9,1.8
		c-4.1,1.6-8.4,3.1-12.5,4.7c-3.7,1.5-7.4,3.1-11.1,4.6c-2.2,0.9-4.4,1.4-6.6,2.2c-1.8,0.7-3.5,1.7-5.4,2.4c-3.5,1.3-7,2.6-10.6,3.6
		c-1.5,0.4-3.5,0.6-4.8-0.2c-9.8-5.5-18.8-12-22.2-24.3c-0.3-1-0.5-2.1-0.7-3.2C442.2,40.7,442.2,39.4,442.1,38.6z M470.4,48.3
		c-0.2,0-0.3,0-0.3,0.1c-0.2,0.2-0.4,0.5-0.6,0.7c-1.9,2.1-3,4.7-4.2,7.3c-0.4,0.9-0.8,1.9-1,2.9c-0.2,1.5-0.2,2.9-0.2,4.4
		c0,1.2,0.1,2.4,0.4,3.6c0.3,1.1,0.9,2.1,2.3,1.9c0.7-0.1,1.5,0.2,2.2,0.1c1.1-0.2,2.1-0.6,3.1-1.1c1.1-0.5,2.1-1.3,3.2-1.8
		c1-0.5,2-0.8,3.1-1.2c1.3-0.6,2.6-1.2,4-1.7c2.1-0.8,4.3-1.4,6.4-2.2c2.1-0.8,4.1-2,6.2-2.9c0.8-0.3,1.7-0.3,2.5-0.7
		c2.2-0.9,4.4-1.9,6.6-2.9c0.1,0,0.2,0,0.4-0.1c1.7-0.7,3.5-1.4,5.2-2.1c1.1-0.5,2.2-1.2,3.4-1.3c2-0.1,3.7-1,5.4-2
		c0.4-0.2,0.9-0.4,1.4-0.4c1.6,0,2.9-1,4-2.1c0.5-0.5,0.5-1.3,0.8-2c0.2-0.5,0.3-1,0.5-1.5c0.9-1.8,1.2-3.8,1.1-5.8
		c0-0.3,0-0.7-0.2-0.9c-1.3-1.7-2.5-3.4-3.9-5.1c-0.3-0.4-0.8-0.6-1.2-0.8c-1.1-0.5-2.2-0.9-3.4-1.3c-1.4-0.4-2.8-1-4.2-1.1
		c-4.4-0.3-8.7,0.8-12.9,2.3c-2.1,0.7-4,1.9-6.1,2.8c-1.8,0.8-3.6,1.3-5.3,2.1c-3.9,1.6-7.2,4.4-11.4,5.3c-0.2,0-0.4,0.3-0.6,0.5
		c-0.6,0.5-1.3,1-1.9,1.6c-0.8,0.7-2.3,1.3-2.3,1.9c0,1-0.6,1-0.9,1.5c-0.1,0.2-0.1,0.5-0.2,0.7c-0.6,0.9-1.2,1.8-1.9,2.6
		c-0.1-0.1-0.2-0.2-0.3-0.3C469.8,49.1,470.1,48.7,470.4,48.3z"/>
	<path fill="#663500" d="M508.5,36c0,0.8,0,1.1,0,1.6c0.5-0.2,0.9-0.3,1.3-0.4c2.2,2.7,1.8,7.8-0.6,9c-0.2-0.3-0.5-0.6-0.9-1.1
		c-0.8,1.2-1.7,2.4-2.4,3.6c-1.1,2.1-2.6,3.4-4.7,4.1c-2.1,0.7-4.1,1.6-6.3,2.4c0.3,0.2,0.5,0.4,0.9,0.6c-3.5,1.5-6.9,2.8-10.4,4.3
		c0.1-0.6,0.2-1,0.2-1.1c-0.6-0.3-1.3-0.6-2-0.9c0.3-0.1,0.9-0.3,1.4-0.5c0-1.8,2.2,0,2.3-1.7c0,0,0-0.1-0.1-0.1
		c-1.4,0.3-2.2-0.9-3.3-1.5c-0.3-0.2-0.8-0.5-1.1-0.3c-1.4,0.8-2.5-0.3-3.5-0.5c-0.1-0.7-0.4-1.3-0.2-1.7c0.4-0.7,1-1.2,1.5-1.8
		c0.4-0.4,1-0.8,1.4-1.2c0.5-0.5,1.1-0.9,1.6-1.4c0.6-0.5,1.4-0.9,1-2c-0.1-0.3,0.2-0.9,0.5-1.2c0.5-0.4,1-0.7,1.6-0.9
		c1.3-0.5,2.7-1,4-1.4c1-0.3,2.1,0.2,2.9-0.9c0.3-0.4,0.9-0.5,1.3-0.9c1.2-1.4,2-1.6,3.5-0.8c0.2,0.1,0.5,0.2,0.7,0.2
		c0-0.1,0-0.2-0.1-0.4c0.7-0.2,1.4-0.4,2.1-0.7c1.4-0.4,2.8-0.8,4.1-1.3C506.5,37,507.4,36.5,508.5,36z"/>
</g>
</svg>
