<?xml version="1.0" encoding="utf-8"?>
<!-- Generator: Adobe Illustrator 24.0.0, SVG Export Plug-In . SVG Version: 6.00 Build 0)  -->
<svg version="1.1" baseProfile="tiny" id="Layer_1" xmlns="http://www.w3.org/2000/svg" xmlns:xlink="http://www.w3.org/1999/xlink"
	 x="0px" y="0px" viewBox="0 0 455.5 360.1" xml:space="preserve">
<g>
	<path fill="#CCA300" d="M351.2,360.1c-58.4-1-104.7-44.7-104.7-102.1c0-56.8,45.6-101.7,104.4-101.8
		c58.4-0.1,104.7,44.5,104.7,101.9C455.6,314.8,409.9,358.9,351.2,360.1z M439.7,215.7c-0.4-1.3-0.6-2.7-1.3-3.9
		c-5.8-10.4-13.2-19.6-22.9-26.7c-5.4-4-11.6-7.1-17.4-10.6c-2.6-1-5.2-2.1-7.8-3.1c-2-1-3.8-2.4-5.9-3.1
		c-15.8-4.9-31.9-6.6-48.4-3.6c-7.3,1.4-14.6,2.7-21.2,6.3c-2.5,1.2-5,2.3-7.5,3.5c-1,0.4-2.1,0.7-3,1.2
		c-11,5.9-20.8,13.4-28.4,23.2c-4,5.1-7,11-10.5,16.5c-1.1,2.5-2.1,5.1-3.2,7.6c-0.6,0.8-1.4,1.6-1.8,2.5c-4.5,10-6,20.7-6.5,31.4
		c-0.3,6.8,0.2,13.9,1.6,20.6c1.3,6.5,4.2,12.7,6.3,19c1.3,2.3,2.6,4.6,3.9,6.9c0.2,1,0.3,2.2,0.8,3.1c7.5,13.5,17.8,24.6,30.9,33
		c3.1,2,6.8,3.2,10.2,4.8c2.5,1.2,5,2.3,7.5,3.5c2,1,3.8,2.4,5.9,3.1c15.8,4.9,31.9,6.6,48.4,3.6c7.3-1.4,14.6-2.7,21.2-6.3
		c2.4-1.3,4.7-2.5,7.1-3.8c1.3-0.4,2.8-0.6,4-1.3c10.7-5.6,20.1-12.9,27.4-22.3c4.1-5.3,7.3-11.3,10.9-16.9c1.1-2.5,2.1-5.1,3.2-7.6
		c1.1-1.9,2.5-3.7,3.1-5.8c5-15.4,6.8-31.1,3.7-47.2c-1.4-7.1-2.7-14.2-6.4-20.7C442.3,220.3,441,218,439.7,215.7z"/>
	<path fill="#CCA300" d="M306.9,174.2c2.5-1.2,5-2.3,7.5-3.5c3.1-0.8,6.2-1.4,9.2-2.3c13.5-4,27.2-5.9,41.2-3.4
		c8.5,1.5,16.8,4,25.2,6c2.6,1,5.2,2.1,7.8,3.1c1,0.8,1.8,1.8,2.9,2.4c10.7,5.8,19.9,13.4,27.4,22.7c4.1,5.1,7.6,10.7,11.3,16.1
		c1.3,2.3,2.6,4.6,3.9,6.9c0.8,3,1.5,6,2.4,9c4.1,13.1,6,26.5,3.5,40.1c-1.6,8.3-4.1,16.4-6.2,24.5c-1.1,2.5-2.1,5.1-3.2,7.6
		c-0.8,0.9-1.9,1.8-2.5,2.8c-6,10.4-13.7,19.3-23.3,26.7c-5.2,4-11,7.4-16.5,11c-2.4,1.3-4.7,2.5-7.1,3.8c-3.1,0.8-6.2,1.4-9.2,2.3
		c-13.5,4-27.2,5.9-41.2,3.4c-8.5-1.5-16.8-4-25.2-6c-2.5-1.2-5-2.3-7.5-3.5c-1-0.7-1.9-1.4-3-2c-10.8-5.8-20.1-13.4-27.6-22.8
		c-4.1-5.1-7.6-10.7-11.3-16.1c-1.3-2.3-2.6-4.6-3.9-6.9c-0.8-3-1.5-6-2.4-9c-4.1-13.1-6-26.5-3.5-40.1c1.6-8.3,4.1-16.4,6.2-24.5
		c1.1-2.5,2.1-5.1,3.2-7.6c0.7-0.7,1.7-1.4,2.2-2.2c8.4-14.6,19.9-26.2,34.6-34.9C303.6,176.8,305.2,175.4,306.9,174.2z M337.8,309
		c7,0.4,14.8-1.2,22.2-4.5c11.8-5.3,20.7-13.1,23.6-26.1c0.2-1,1.4-2.1,2.4-2.6c3.8-1.7,7.8-2.9,11.4-4.9
		c10.8-5.9,18.3-14.2,18.3-26.9c0-11.4-6.3-19.5-15.7-25.5c-15.5-9.9-32.3-11.6-49.8-6.3c-14.5,4.4-25.7,12.4-29.4,27.8
		c-0.2,1-1.7,2-2.9,2.6c-5.3,2.8-11.1,4.8-15.9,8.2c-15,10.6-18.2,30.4-3.8,44.2C308.8,305.3,321.9,309.3,337.8,309z"/>
	<path fill="#CCA300" d="M336.4,304c-13.8,0.1-24.9-3-34.6-10.4c-13.8-10.5-13.2-28.6,0.5-39.5c8.3-6.5,18.1-9.4,28.6-10
		c12-0.7,23.3,1.5,33.6,7.8c18.6,11.4,18.6,32.7,0,44.2C357.6,300.5,347,304.4,336.4,304z M333.6,293.2c0.1-0.3,0.2-0.6,0.2-0.8
		c1.2,0,2.6,0.3,3.6-0.1c1.2-0.5,2.7-1.6,3-2.7c0.2-0.9-1.2-2.3-2.2-3c-0.8-0.6-2.1-0.3-3.2-0.5c-3.9-0.8-7.9-1.4-11.7-2.6
		c-2.2-0.7-3.9-0.7-5,1.4c-1.2,2.3,0.3,3.8,2.3,4.5C324.9,290.7,329.3,291.9,333.6,293.2z M323.3,268.4c0.1-0.2,0.1-0.4,0.2-0.5
		c0.5,0,1.1,0,1.6,0c2.4,0,4.2-1,4.2-3.4c-0.1-2.5-2.1-2.7-4.2-2.9c-2.4-0.2-4.8-1-7.3-1.5c-1.6-0.3-3.2-1-4.7-0.8
		c-1.1,0.2-2.7,1.4-2.9,2.4c-0.2,1,0.8,2.9,1.7,3.2C315.6,266.2,319.5,267.2,323.3,268.4z"/>
	<path fill="#CCA300" d="M324.6,238.2c0.5-4.5,2.9-8.2,5.9-11.5c7.2-8.1,16.8-12,27.2-13.7c13.2-2.1,26.1-0.7,37.8,6.1
		c8.1,4.7,14.2,11,15.6,20.7c0.9,6.6-1.5,12.2-5.6,17.2c-5,6.2-11.9,9.7-19.2,12.4c-1.6,0.6-2.8,0.8-3.4-1.5
		c-3.1-11.2-11-18.5-21.3-23.4c-10.5-5.1-21.7-7.1-33.5-5.9c-0.8,0.1-1.5,0.1-2.3,0C325.5,238.6,325.2,238.4,324.6,238.2z
		 M393.6,238.6c-0.1-5.4-3.5-7.3-6.4-9.4c-1.7-1.3-3.6-1.9-5.2,0.1c-1.8,2.2-0.3,3.6,1.3,5.2c1.4,1.4,2.5,3.1,4,4.4
		c1.1,1,2.6,2.2,3.8,2.1C392.2,240.8,393.1,239.1,393.6,238.6z"/>
</g>
<g>
	<path fill="#CCA300" d="M208.4,150.8c-37.6-0.6-67.3-28.4-67.3-64.9c0-36.1,29.3-64.7,67.2-64.8c37.6-0.1,67.3,28.3,67.3,64.8
		C275.6,122.1,246.2,150.1,208.4,150.8z M265.3,59c-0.3-0.8-0.4-1.7-0.8-2.5c-3.7-6.6-8.5-12.4-14.7-17c-3.5-2.5-7.4-4.5-11.2-6.8
		c-1.7-0.7-3.3-1.3-5-2c-1.3-0.7-2.5-1.5-3.8-1.9c-10.2-3.1-20.5-4.2-31.2-2.3c-4.7,0.9-9.4,1.7-13.6,4c-1.6,0.7-3.2,1.5-4.8,2.2
		c-0.7,0.2-1.3,0.4-2,0.8c-7.1,3.8-13.4,8.5-18.3,14.7c-2.6,3.3-4.5,7-6.7,10.5c-0.7,1.6-1.4,3.2-2.1,4.8c-0.4,0.5-0.9,1-1.2,1.6
		c-2.9,6.4-3.8,13.2-4.2,20c-0.2,4.4,0.2,8.8,1,13.1c0.8,4.1,2.7,8.1,4.1,12.1c0.8,1.5,1.7,2.9,2.5,4.4c0.2,0.7,0.2,1.4,0.5,1.9
		c4.8,8.6,11.4,15.6,19.9,21c2,1.3,4.4,2.1,6.6,3.1c1.6,0.7,3.2,1.5,4.8,2.2c1.3,0.7,2.5,1.5,3.8,1.9c10.2,3.1,20.5,4.2,31.2,2.3
		c4.7-0.9,9.4-1.7,13.6-4c1.5-0.8,3.1-1.6,4.6-2.4c0.9-0.3,1.8-0.4,2.6-0.8c6.9-3.6,12.9-8.2,17.6-14.2c2.6-3.4,4.7-7.2,7-10.8
		c0.7-1.6,1.4-3.2,2.1-4.8c0.7-1.2,1.6-2.4,2-3.7c3.2-9.8,4.4-19.8,2.4-30c-0.9-4.5-1.8-9-4.1-13.1C267,62,266.2,60.5,265.3,59z"/>
	<path fill="#CCA300" d="M180,32.6c1.6-0.7,3.2-1.5,4.8-2.2c2-0.5,4-0.9,5.9-1.5c8.7-2.5,17.5-3.7,26.5-2.1c5.5,1,10.8,2.5,16.2,3.8
		c1.7,0.7,3.3,1.3,5,2c0.6,0.5,1.2,1.2,1.9,1.5c6.9,3.7,12.8,8.5,17.6,14.4c2.6,3.2,4.9,6.8,7.3,10.2c0.8,1.5,1.7,2.9,2.5,4.4
		c0.5,1.9,0.9,3.8,1.5,5.7c2.6,8.4,3.9,16.9,2.2,25.5c-1,5.3-2.6,10.4-4,15.6c-0.7,1.6-1.4,3.2-2.1,4.8c-0.5,0.6-1.2,1.1-1.6,1.8
		c-3.8,6.6-8.8,12.3-15,17c-3.4,2.5-7.1,4.7-10.6,7c-1.5,0.8-3.1,1.6-4.6,2.4c-2,0.5-4,0.9-5.9,1.5c-8.7,2.5-17.5,3.7-26.5,2.1
		c-5.5-1-10.8-2.5-16.2-3.8c-1.6-0.7-3.2-1.5-4.8-2.2c-0.6-0.4-1.2-0.9-1.9-1.2c-7-3.7-12.9-8.5-17.8-14.5
		c-2.6-3.2-4.9-6.8-7.3-10.2c-0.8-1.5-1.7-2.9-2.5-4.4c-0.5-1.9-0.9-3.8-1.5-5.7c-2.6-8.4-3.9-16.9-2.2-25.5c1-5.3,2.6-10.4,4-15.6
		c0.7-1.6,1.4-3.2,2.1-4.8c0.5-0.5,1.1-0.9,1.4-1.4c5.4-9.3,12.8-16.7,22.3-22.2C177.8,34.3,178.9,33.4,180,32.6z M199.8,118.4
		c4.5,0.2,9.5-0.7,14.3-2.8c7.6-3.4,13.3-8.3,15.2-16.6c0.1-0.6,0.9-1.3,1.5-1.6c2.4-1.1,5-1.9,7.4-3.1c6.9-3.7,11.8-9,11.8-17.1
		c0-7.2-4.1-12.4-10.1-16.2c-10-6.3-20.8-7.4-32.1-4c-9.3,2.8-16.6,7.9-18.9,17.7c-0.2,0.7-1.1,1.3-1.8,1.6
		c-3.4,1.8-7.1,3.1-10.2,5.2c-9.7,6.7-11.7,19.3-2.4,28.1C181.2,116,189.6,118.5,199.8,118.4z"/>
	<path fill="#CCA300" d="M198.9,115.2c-8.9,0-16-1.9-22.3-6.6c-8.9-6.7-8.5-18.2,0.3-25.1c5.3-4.2,11.6-6,18.4-6.3
		c7.7-0.4,15,0.9,21.6,5c11.9,7.2,11.9,20.8,0,28.1C212.5,112.9,205.7,115.4,198.9,115.2z M197.1,108.3c0.1-0.2,0.1-0.4,0.2-0.5
		c0.8,0,1.7,0.2,2.3-0.1c0.8-0.3,1.8-1,1.9-1.7c0.1-0.5-0.7-1.5-1.4-1.9c-0.5-0.3-1.4-0.2-2-0.3c-2.5-0.5-5.1-0.9-7.5-1.6
		c-1.4-0.4-2.5-0.5-3.2,0.9c-0.8,1.5,0.2,2.4,1.5,2.8C191.5,106.7,194.3,107.5,197.1,108.3z M190.5,92.5c0-0.1,0.1-0.2,0.1-0.3
		c0.4,0,0.7,0,1.1,0c1.5,0,2.7-0.6,2.7-2.2c0-1.6-1.3-1.7-2.7-1.9c-1.6-0.1-3.1-0.7-4.7-1c-1-0.2-2.1-0.6-3-0.5
		c-0.7,0.1-1.7,0.9-1.8,1.5c-0.1,0.6,0.5,1.8,1.1,2.1C185.5,91.1,188,91.8,190.5,92.5z"/>
	<path fill="#CCA300" d="M191.3,73.4c0.3-2.9,1.9-5.2,3.8-7.3c4.6-5.1,10.8-7.6,17.5-8.7c8.5-1.3,16.8-0.4,24.3,3.9
		c5.2,3,9.1,7,10,13.2c0.6,4.2-1,7.8-3.6,10.9c-3.2,3.9-7.6,6.2-12.4,7.9c-1,0.4-1.8,0.5-2.2-0.9c-2-7.1-7.1-11.8-13.7-14.9
		c-6.8-3.2-14-4.5-21.5-3.8c-0.5,0-1,0-1.5,0C191.9,73.6,191.7,73.5,191.3,73.4z M235.7,73.6c-0.1-3.4-2.2-4.6-4.1-6
		c-1.1-0.8-2.3-1.2-3.3,0.1c-1.1,1.4-0.2,2.3,0.9,3.3c0.9,0.9,1.6,1.9,2.6,2.8c0.7,0.6,1.7,1.4,2.4,1.3
		C234.8,75,235.4,73.9,235.7,73.6z"/>
</g>
<g>
	<path fill="#CCA300" d="M40.7,74.3C18,74,0,58,0,37.1C0,16.4,17.7,0,40.6,0c22.7,0,40.7,16.2,40.7,37.1
		C81.3,57.8,63.5,73.9,40.7,74.3z M75.1,21.7c-0.2-0.5-0.2-1-0.5-1.4c-2.3-3.8-5.1-7.1-8.9-9.7c-2.1-1.5-4.5-2.6-6.8-3.9
		c-1-0.4-2-0.8-3-1.1c-0.8-0.4-1.5-0.9-2.3-1.1C47.4,2.7,41.2,2,34.8,3.1c-2.8,0.5-5.7,1-8.2,2.3c-1,0.4-1.9,0.8-2.9,1.3
		c-0.4,0.1-0.8,0.2-1.2,0.4c-4.3,2.2-8.1,4.9-11,8.5c-1.5,1.9-2.7,4-4.1,6c-0.4,0.9-0.8,1.8-1.2,2.8c-0.2,0.3-0.5,0.6-0.7,0.9
		C3.6,28.9,3,32.8,2.9,36.7c-0.1,2.5,0.1,5.1,0.6,7.5c0.5,2.4,1.6,4.6,2.5,6.9c0.5,0.8,1,1.7,1.5,2.5c0.1,0.4,0.1,0.8,0.3,1.1
		c2.9,4.9,6.9,8.9,12,12c1.2,0.7,2.6,1.2,4,1.8c1,0.4,1.9,0.8,2.9,1.3c0.8,0.4,1.5,0.9,2.3,1.1c6.2,1.8,12.4,2.4,18.8,1.3
		c2.8-0.5,5.7-1,8.2-2.3c0.9-0.5,1.8-0.9,2.8-1.4c0.5-0.1,1.1-0.2,1.5-0.5c4.1-2.1,7.8-4.7,10.7-8.1c1.6-1.9,2.8-4.1,4.2-6.2
		c0.4-0.9,0.8-1.8,1.2-2.8c0.4-0.7,1-1.4,1.2-2.1c2-5.6,2.6-11.3,1.4-17.2c-0.5-2.6-1.1-5.2-2.5-7.5C76.1,23.4,75.6,22.5,75.1,21.7z
		"/>
	<path fill="#CCA300" d="M23.5,6.6c1-0.4,1.9-0.8,2.9-1.3C27.6,5,28.8,4.8,30,4.5C35.2,3,40.6,2.3,46,3.2c3.3,0.6,6.5,1.5,9.8,2.2
		c1,0.4,2,0.8,3,1.1c0.4,0.3,0.7,0.7,1.1,0.9c4.1,2.1,7.7,4.9,10.6,8.3c1.6,1.9,2.9,3.9,4.4,5.9c0.5,0.8,1,1.7,1.5,2.5
		c0.3,1.1,0.6,2.2,0.9,3.3c1.6,4.8,2.3,9.7,1.3,14.6c-0.6,3-1.6,6-2.4,8.9c-0.4,0.9-0.8,1.8-1.2,2.8c-0.3,0.3-0.7,0.6-1,1
		c-2.3,3.8-5.3,7.1-9.1,9.7c-2,1.5-4.3,2.7-6.4,4c-0.9,0.5-1.8,0.9-2.8,1.4c-1.2,0.3-2.4,0.5-3.6,0.8c-5.2,1.4-10.6,2.1-16,1.2
		c-3.3-0.6-6.5-1.5-9.8-2.2c-1-0.4-1.9-0.8-2.9-1.3c-0.4-0.2-0.8-0.5-1.2-0.7c-4.2-2.1-7.8-4.9-10.7-8.3c-1.6-1.9-2.9-3.9-4.4-5.9
		c-0.5-0.8-1-1.7-1.5-2.5c-0.3-1.1-0.6-2.2-0.9-3.3C3.3,43,2.6,38.1,3.5,33.2c0.6-3,1.6-6,2.4-8.9c0.4-0.9,0.8-1.8,1.2-2.8
		C7.5,21.2,7.8,21,8,20.7c3.2-5.3,7.8-9.6,13.5-12.7C22.2,7.5,22.8,7,23.5,6.6z M35.5,55.7c2.7,0.1,5.7-0.4,8.6-1.6
		c4.6-1.9,8.1-4.8,9.2-9.5c0.1-0.4,0.5-0.8,0.9-0.9c1.5-0.6,3-1.1,4.4-1.8c4.2-2.1,7.1-5.2,7.1-9.8c0-4.1-2.5-7.1-6.1-9.3
		c-6-3.6-12.6-4.2-19.4-2.3c-5.6,1.6-10,4.5-11.4,10.1c-0.1,0.4-0.7,0.7-1.1,0.9c-2.1,1-4.3,1.8-6.2,3c-5.8,3.9-7.1,11.1-1.5,16.1
		C24.2,54.3,29.3,55.8,35.5,55.7z"/>
	<path fill="#CCA300" d="M35,53.9c-5.3,0-9.7-1.1-13.5-3.8c-5.4-3.8-5.1-10.4,0.2-14.4c3.2-2.4,7-3.4,11.1-3.6
		c4.7-0.3,9.1,0.5,13.1,2.8c7.2,4.1,7.2,11.9,0,16.1C43.2,52.6,39.1,54,35,53.9z M33.9,49.9c0-0.1,0.1-0.2,0.1-0.3
		c0.5,0,1,0.1,1.4,0c0.5-0.2,1.1-0.6,1.2-1c0.1-0.3-0.4-0.8-0.8-1.1c-0.3-0.2-0.8-0.1-1.2-0.2c-1.5-0.3-3.1-0.5-4.5-0.9
		c-0.9-0.2-1.5-0.3-2,0.5c-0.5,0.8,0.1,1.4,0.9,1.6C30.5,49.1,32.2,49.5,33.9,49.9z M29.8,40.9c0-0.1,0-0.1,0.1-0.2
		c0.2,0,0.4,0,0.6,0c0.9,0,1.6-0.3,1.6-1.3c0-0.9-0.8-1-1.6-1.1c-1-0.1-1.9-0.4-2.8-0.6c-0.6-0.1-1.3-0.4-1.8-0.3
		c-0.4,0.1-1,0.5-1.1,0.9c-0.1,0.4,0.3,1,0.7,1.2C26.9,40.1,28.4,40.5,29.8,40.9z"/>
	<path fill="#CCA300" d="M30.4,29.9c0.2-1.7,1.1-3,2.3-4.2c2.8-2.9,6.5-4.4,10.6-5c5.1-0.8,10.1-0.2,14.7,2.2c3.2,1.7,5.5,4,6,7.5
		c0.4,2.4-0.6,4.4-2.2,6.3c-1.9,2.2-4.6,3.5-7.5,4.5c-0.6,0.2-1.1,0.3-1.3-0.5c-1.2-4.1-4.3-6.7-8.3-8.5c-4.1-1.8-8.4-2.6-13-2.2
		c-0.3,0-0.6,0-0.9,0C30.7,30.1,30.6,30,30.4,29.9z M57.2,30.1c0-2-1.3-2.6-2.5-3.4c-0.7-0.5-1.4-0.7-2,0c-0.7,0.8-0.1,1.3,0.5,1.9
		c0.6,0.5,1,1.1,1.6,1.6c0.4,0.4,1,0.8,1.5,0.8C56.6,30.9,57,30.2,57.2,30.1z"/>
</g>
</svg>
